# xmcd
#
# Track frame offsets:
#	150
#	16671
#	38750
#	57535
#	71590
#	88793
#	105177
#	115700
#	133877
#	154396
#	171676
#	188718
#	209133
#
# Disc length: 3096 seconds
#
# Revision: 0
# Processed by: cddbd v1.4PL0 Copyright (c) Steve Scherf et al.
# Submitted via: dBpowerAMP V4.0
#
DISCID=ba0c160d
DTITLE=E. G. Kight - Trouble
DYEAR=2000
DGENRE=Blues
TTITLE0=Touble With A Capital "T"
TTITLE1=Let The Healing Begin
TTITLE2=The Queen
TTITLE3=It Takes A Mighty Good Man
TTITLE4=Nothin' But The Blues
TTITLE5=First In Line
TTITLE6=My Mask
TTITLE7=The Rooster Song
TTITLE8=A Woman Can Tell
TTITLE9=Blue Dawn
TTITLE10=Your Love Looks Good On Me
TTITLE11=Better Off With The Blues
TTITLE12=When A Man Loves A Woman
EXTD=
EXTT0=
EXTT1=
EXTT2=
EXTT3=
EXTT4=
EXTT5=
EXTT6=
EXTT7=
EXTT8=
EXTT9=
EXTT10=
EXTT11=
EXTT12=
PLAYORDER=
